<svg width="24" height="20" viewBox="0 0 24 20" fill="none" xmlns="http://www.w3.org/2000/svg">
<path d="M5.20588 19.1471C3.67647 19.1471 2.41177 18.5882 1.41177 17.4706C0.470589 16.3529 0 14.6471 0 12.3529C0 9.35294 0.764707 6.70588 2.29412 4.41177C3.88235 2.05882 6.32353 0.588235 9.61765 0L9.97059 2.29412C6.26471 3.29412 4.41177 5.02941 4.41177 7.5C4.41177 8.55882 4.91177 9.17647 5.91177 9.35294C8.79412 9.82353 10.2353 11.4118 10.2353 14.1176C10.2353 15.7059 9.7353 16.9412 8.7353 17.8235C7.79412 18.7059 6.61765 19.1471 5.20588 19.1471ZM18.9706 19.1471C17.4412 19.1471 16.1765 18.5882 15.1765 17.4706C14.2353 16.3529 13.7647 14.6471 13.7647 12.3529C13.7647 9.35294 14.5294 6.70588 16.0588 4.41177C17.6471 2.05882 20.0882 0.588235 23.3824 0L23.7353 2.29412C20.0294 3.29412 18.1765 5.02941 18.1765 7.5C18.1765 8.55882 18.6765 9.17647 19.6765 9.35294C22.5588 9.82353 24 11.4118 24 14.1176C24 15.7059 23.5 16.9412 22.5 17.8235C21.5588 18.7059 20.3824 19.1471 18.9706 19.1471Z" fill="#A9CF54"/>
</svg>
