<svg width="80" height="80" viewBox="0 0 80 80" fill="none" xmlns="http://www.w3.org/2000/svg">
<rect y="80" width="80" height="80" rx="40" transform="rotate(-90 0 80)" fill="url(#paint0_linear_53_1283)"/>
<path opacity="0.7" d="M27.5555 37.8104C26.589 37.8104 25.8055 38.5939 25.8055 39.5604C25.8055 40.5269 26.589 41.3104 27.5555 41.3104L27.5555 37.8104ZM54.5708 40.7979C55.2542 40.1144 55.2542 39.0064 54.5708 38.323L43.4338 27.1861C42.7504 26.5026 41.6424 26.5026 40.959 27.1861C40.2755 27.8695 40.2755 28.9775 40.959 29.6609L50.8584 39.5604L40.959 49.4599C40.2755 50.1433 40.2755 51.2514 40.959 51.9348C41.6424 52.6182 42.7504 52.6182 43.4338 51.9348L54.5708 40.7979ZM27.5555 41.3104L53.3333 41.3104L53.3333 37.8104L27.5555 37.8104L27.5555 41.3104Z" fill="white"/>
<defs>
<linearGradient id="paint0_linear_53_1283" x1="40" y1="80" x2="40" y2="265.714" gradientUnits="userSpaceOnUse">
<stop stop-color="#7FB10D"/>
<stop offset="1" stop-color="#EAC131"/>
</linearGradient>
</defs>
</svg>
