<svg width="17" height="16" viewBox="0 0 17 16" fill="none" xmlns="http://www.w3.org/2000/svg">
<g opacity="0.8">
<path fill-rule="evenodd" clip-rule="evenodd" d="M1.94605 8.0426C1.94616 6.82348 2.29804 5.63029 2.95947 4.60619C3.6209 3.5821 4.56378 2.7706 5.67497 2.26909C6.78616 1.76757 8.01846 1.59734 9.224 1.77881C10.4295 1.96028 11.5571 2.48575 12.4714 3.29217C13.3857 4.09858 14.0479 5.15169 14.3785 6.32512C14.7092 7.49855 14.6942 8.74247 14.3354 9.9076C13.9766 11.0727 13.2893 12.1096 12.3558 12.8937C11.4223 13.6779 10.2824 14.1761 9.07288 14.3285V9.62634H10.6566C10.8666 9.62634 11.0681 9.54292 11.2166 9.39441C11.3651 9.24591 11.4485 9.04449 11.4485 8.83447C11.4485 8.62446 11.3651 8.42304 11.2166 8.27454C11.0681 8.12603 10.8666 8.0426 10.6566 8.0426H9.07288V6.45886C9.07288 6.24885 9.15631 6.04743 9.30481 5.89893C9.45332 5.75042 9.65473 5.66699 9.86475 5.66699H10.2607C10.4707 5.66699 10.6721 5.58356 10.8206 5.43506C10.9691 5.28655 11.0526 5.08514 11.0526 4.87512C11.0526 4.66511 10.9691 4.46369 10.8206 4.31519C10.6721 4.16668 10.4707 4.08325 10.2607 4.08325H9.86475C9.2347 4.08325 8.63045 4.33354 8.18494 4.77905C7.73942 5.22457 7.48914 5.82881 7.48914 6.45886V8.0426H5.9054C5.69538 8.0426 5.49396 8.12603 5.34546 8.27454C5.19696 8.42304 5.11353 8.62446 5.11353 8.83447C5.11353 9.04449 5.19696 9.24591 5.34546 9.39441C5.49396 9.54292 5.69538 9.62634 5.9054 9.62634H7.48914V14.3285C5.95821 14.1354 4.55036 13.3903 3.52979 12.233C2.50921 11.0756 1.94607 9.58565 1.94605 8.0426ZM8.28101 15.9613C12.6545 15.9613 16.1997 12.4161 16.1997 8.0426C16.1997 3.6691 12.6545 0.123901 8.28101 0.123901C3.90751 0.123901 0.362305 3.6691 0.362305 8.0426C0.362305 12.4161 3.90751 15.9613 8.28101 15.9613Z" fill="#F7F8FA"/>
</g>
</svg>
