<svg width="13" height="14" viewBox="0 0 13 14" fill="none" xmlns="http://www.w3.org/2000/svg">
<g id="Feather Icons/fi:link" clip-path="url(#clip0_599_3597)">
<path id="Vector" d="M5.4751 7.96967C5.70568 8.27793 5.99986 8.533 6.33768 8.71757C6.67551 8.90214 7.04908 9.01189 7.43305 9.03939C7.81703 9.06689 8.20242 9.01149 8.5631 8.87695C8.92378 8.7424 9.25131 8.53186 9.52346 8.25961L11.1342 6.64885C11.6232 6.14253 11.8938 5.4644 11.8877 4.76051C11.8816 4.05662 11.5993 3.38329 11.1015 2.88554C10.6038 2.3878 9.93044 2.10546 9.22655 2.09934C8.52266 2.09323 7.84452 2.36382 7.3382 2.85284L6.4147 3.77097" stroke="#3D3D3D" stroke-width="1.07382" stroke-linecap="round" stroke-linejoin="round"/>
<path id="Vector_2" d="M7.62268 6.89585C7.3921 6.58759 7.09792 6.33253 6.76009 6.14796C6.42227 5.96339 6.0487 5.85363 5.66472 5.82613C5.28075 5.79863 4.89535 5.85404 4.53467 5.98858C4.174 6.12312 3.84647 6.33366 3.57431 6.60592L1.96356 8.21667C1.47454 8.72299 1.20395 9.40113 1.21006 10.105C1.21618 10.8089 1.49851 11.4822 1.99626 11.98C2.49401 12.4777 3.16733 12.7601 3.87123 12.7662C4.57512 12.7723 5.25325 12.5017 5.75957 12.0127L6.6777 11.0946" stroke="#3D3D3D" stroke-width="1.07382" stroke-linecap="round" stroke-linejoin="round"/>
</g>
<defs>
<clipPath id="clip0_599_3597">
<rect width="12.886" height="12.886" fill="white" transform="translate(0.105957 0.989685)"/>
</clipPath>
</defs>
</svg>
