<svg width="14" height="14" viewBox="0 0 14 14" fill="none" xmlns="http://www.w3.org/2000/svg">
<g id="More">
<path id="Vector" d="M6.66359 11.2567C6.36831 11.2567 6.11562 11.1517 5.90552 10.9416C5.69507 10.7311 5.58984 10.4783 5.58984 10.183C5.58984 9.88771 5.69507 9.63485 5.90552 9.42439C6.11562 9.2143 6.36831 9.10925 6.66359 9.10925C6.95887 9.10925 7.21174 9.2143 7.42219 9.42439C7.63229 9.63485 7.73733 9.88771 7.73733 10.183C7.73733 10.4783 7.63229 10.7311 7.42219 10.9416C7.21174 11.1517 6.95887 11.2567 6.66359 11.2567ZM6.66359 8.0355C6.36831 8.0355 6.11562 7.93028 5.90552 7.71982C5.69507 7.50973 5.58984 7.25704 5.58984 6.96176C5.58984 6.66648 5.69507 6.41361 5.90552 6.20316C6.11562 5.99306 6.36831 5.88801 6.66359 5.88801C6.95887 5.88801 7.21174 5.99306 7.42219 6.20316C7.63229 6.41361 7.73733 6.66648 7.73733 6.96176C7.73733 7.25704 7.63229 7.50973 7.42219 7.71982C7.21174 7.93028 6.95887 8.0355 6.66359 8.0355ZM6.66359 4.81427C6.36831 4.81427 6.11562 4.70904 5.90552 4.49859C5.69507 4.28849 5.58984 4.0358 5.58984 3.74052C5.58984 3.44524 5.69507 3.19256 5.90552 2.98246C6.11562 2.77201 6.36831 2.66678 6.66359 2.66678C6.95887 2.66678 7.21174 2.77201 7.42219 2.98246C7.63229 3.19256 7.73733 3.44524 7.73733 3.74052C7.73733 4.0358 7.63229 4.28849 7.42219 4.49859C7.21174 4.70904 6.95887 4.81427 6.66359 4.81427Z" fill="#242424"/>
</g>
</svg>
