<svg width="26" height="26" viewBox="0 0 26 26" fill="none" xmlns="http://www.w3.org/2000/svg">
<g id="x">
<path id="Vector (Stroke)" fill-rule="evenodd" clip-rule="evenodd" d="M19.7353 6.47038C20.1421 6.87718 20.1421 7.53672 19.7353 7.94352L7.23527 20.4435C6.82847 20.8503 6.16892 20.8503 5.76213 20.4435C5.35533 20.0367 5.35533 19.3772 5.76213 18.9704L18.2621 6.47038C18.6689 6.06358 19.3285 6.06358 19.7353 6.47038Z" fill="#5C624F"/>
<path id="Vector (Stroke)_2" fill-rule="evenodd" clip-rule="evenodd" d="M5.76213 6.47038C6.16892 6.06358 6.82847 6.06358 7.23527 6.47038L19.7353 18.9704C20.1421 19.3772 20.1421 20.0367 19.7353 20.4435C19.3285 20.8503 18.6689 20.8503 18.2621 20.4435L5.76213 7.94352C5.35533 7.53672 5.35533 6.87718 5.76213 6.47038Z" fill="#5C624F"/>
</g>
</svg>
