<svg width="46" height="46" viewBox="0 0 46 46" fill="none" xmlns="http://www.w3.org/2000/svg">
<g id="Group">
<g id="Group_2">
<path id="Vector" d="M23.07 0.141785C10.738 0.141785 0.530273 10.1741 0.530273 22.5061C0.530273 34.838 10.738 45.0458 23.07 45.0458C35.4019 45.0458 45.4343 34.838 45.4343 22.5061C45.4343 10.1741 35.4019 0.141785 23.07 0.141785ZM34.9099 25.1372H25.7011V34.5214C25.7011 35.972 24.5197 37.1525 23.07 37.1525C21.6194 37.1525 20.4389 35.972 20.4389 34.5214V25.1372H11.0547C9.60404 25.1372 8.42356 23.9567 8.42356 22.5061C8.42356 21.0555 9.60404 19.875 11.0547 19.875H20.4389V10.6662C20.4389 9.21555 21.6194 8.03507 23.07 8.03507C24.5197 8.03507 25.7011 9.21555 25.7011 10.6662V19.875H34.9099C36.3596 19.875 37.541 21.0555 37.541 22.5061C37.541 23.9567 36.3596 25.1372 34.9099 25.1372Z" fill="#A9CF54"/>
</g>
</g>
</svg>
