<svg width="54" height="54" viewBox="0 0 54 54" fill="none" xmlns="http://www.w3.org/2000/svg">
<path d="M8.80082 31.0932V33.0521H9.52411C9.90585 33.0521 10.2374 33.1224 10.2574 33.1224C10.4282 32.8913 10.6392 32.5498 10.6392 32.1078C10.6392 31.4046 10.2072 31.0731 9.23279 31.0731C9.10219 31.0731 8.95151 31.0831 8.80082 31.0932ZM7.76612 30.39L9.35334 30.3397C10.609 30.2995 11.5031 30.8621 11.5031 31.9068C11.5031 32.4594 11.0109 33.0219 10.7497 33.2831C11.4027 33.5845 11.8848 33.9963 11.8848 34.9507C11.8848 36.0256 11.2419 37 9.41361 37H7.89671V31.3142L7.76612 30.39ZM8.80082 33.7954V36.2767H9.53416C10.609 36.2767 10.9305 35.6539 10.9305 35.0411C10.9305 34.1269 10.3981 33.7954 9.37343 33.7954H8.80082ZM12.5639 37L15.1155 30.39L15.7283 30.2594L17.7776 35.895L18.2798 37H17.1849L16.552 35.2721H14.0908L13.4378 37H12.5639ZM15.2461 32.2082L14.362 34.5087H16.3009L15.4671 32.1982L15.3666 31.8064L15.2461 32.2082ZM24.3302 37H23.1649L21.3969 34.5187C21.2864 34.5288 21.1458 34.5288 20.5531 34.5288V36.2466L20.6535 37H19.649V31.3142L19.5184 30.39H21.3869C22.4919 30.39 23.5567 31.0228 23.5567 32.379C23.5567 33.1626 23.0645 33.8959 22.2709 34.2676L24.3302 37ZM20.5531 33.7854H21.206C21.9494 33.7854 22.6024 33.1425 22.6024 32.379C22.6024 31.5553 21.9494 31.1333 21.206 31.1333H20.5531V33.7854ZM30.4269 33.7352L30.4369 36.7489C30.4369 36.7489 29.4223 37.1306 28.1465 37.1306C26.5894 37.1306 25.0826 35.9854 25.0826 33.8356C25.0826 31.7763 26.4588 30.2694 28.2269 30.2694C29.0606 30.2694 29.794 30.5507 30.3867 31.0932L29.9246 31.7763C29.4524 31.284 28.8999 31.0128 28.2369 31.0128C26.9912 31.0128 26.047 32.3388 26.047 33.7352C26.047 35.3626 27.1821 36.4073 28.3273 36.4073C28.8698 36.4073 29.5529 36.2365 29.5529 36.2365L29.5629 34.4785L29.3922 33.7352H30.4269ZM31.4234 37L33.975 30.39L34.5878 30.2594L36.6371 35.895L37.1394 37H36.0444L35.4115 35.2721H32.9504L32.2974 37H31.4234ZM34.1056 32.2082L33.2216 34.5087H35.1604L34.3266 32.1982L34.2262 31.8064L34.1056 32.2082ZM39.4126 30.39V36.2466L39.5131 37H38.5085V31.3142L38.3779 30.39H39.4126ZM47.2133 30.39V36.2466L47.2736 37H46.8014L43.0343 32.7808L42.6024 32.1279V36.2466L42.7028 37H41.7786V31.3142L41.648 30.39H42.2608L45.9476 34.5689L46.3896 35.2219V31.3142L46.259 30.39H47.2133Z" fill="#A9CF54"/>
<path fill-rule="evenodd" clip-rule="evenodd" d="M54 27C54 27.2336 53.997 27.4665 53.9911 27.6986H39.7056L27.0671 14.0549L14.4286 27.6986H0.00886224C0.00296595 27.4665 0 27.2336 0 27C0 12.0883 12.0883 0 27 0C41.9117 0 54 12.0883 54 27ZM27 54C16.5465 54 7.4805 48.0593 2.99392 39.3698H51.0061C46.5195 48.0593 37.4535 54 27 54ZM26.9999 20.5889L33.1386 26.7533H20.8612L26.9999 20.5889Z" fill="#A9CF54"/>
</svg>
