<svg width="90" height="91" viewBox="0 0 90 91" fill="none" xmlns="http://www.w3.org/2000/svg">
<g opacity="0.5">
<circle cx="45" cy="45.3442" r="44.5" stroke="#F7F8FA"/>
<path opacity="0.7" d="M46.9945 31.3442C46.9945 30.5158 46.3229 29.8442 45.4945 29.8442C44.6661 29.8442 43.9945 30.5158 43.9945 31.3442L46.9945 31.3442ZM44.4338 61.4049C45.0196 61.9907 45.9694 61.9907 46.5552 61.4049L56.1011 51.859C56.6869 51.2732 56.6869 50.3234 56.1011 49.7376C55.5153 49.1519 54.5656 49.1519 53.9798 49.7376L45.4945 58.2229L37.0092 49.7376C36.4234 49.1518 35.4737 49.1518 34.8879 49.7376C34.3021 50.3234 34.3021 51.2732 34.8879 51.859L44.4338 61.4049ZM43.9945 31.3442L43.9945 60.3442L46.9945 60.3442L46.9945 31.3442L43.9945 31.3442Z" fill="#F7F8FA"/>
</g>
</svg>
