<svg width="12" height="13" viewBox="0 0 12 13" fill="none" xmlns="http://www.w3.org/2000/svg">
<g id="Trash bin">
<path id="Vector" d="M4.21017 4.8732C4.32263 4.8732 4.43048 4.91787 4.51 4.9974C4.58953 5.07692 4.6342 5.18477 4.6342 5.29723V10.3856C4.6342 10.4981 4.58953 10.606 4.51 10.6855C4.43048 10.765 4.32263 10.8097 4.21017 10.8097C4.09771 10.8097 3.98985 10.765 3.91033 10.6855C3.83081 10.606 3.78613 10.4981 3.78613 10.3856V5.29723C3.78613 5.18477 3.83081 5.07692 3.91033 4.9974C3.98985 4.91787 4.09771 4.8732 4.21017 4.8732ZM6.33034 4.8732C6.4428 4.8732 6.55065 4.91787 6.63018 4.9974C6.7097 5.07692 6.75437 5.18477 6.75437 5.29723V10.3856C6.75437 10.4981 6.7097 10.606 6.63018 10.6855C6.55065 10.765 6.4428 10.8097 6.33034 10.8097C6.21788 10.8097 6.11002 10.765 6.0305 10.6855C5.95098 10.606 5.9063 10.4981 5.9063 10.3856V5.29723C5.9063 5.18477 5.95098 5.07692 6.0305 4.9974C6.11002 4.91787 6.21788 4.8732 6.33034 4.8732ZM8.87454 5.29723C8.87454 5.18477 8.82987 5.07692 8.75035 4.9974C8.67083 4.91787 8.56297 4.8732 8.45051 4.8732C8.33805 4.8732 8.23019 4.91787 8.15067 4.9974C8.07115 5.07692 8.02648 5.18477 8.02648 5.29723V10.3856C8.02648 10.4981 8.07115 10.606 8.15067 10.6855C8.23019 10.765 8.33805 10.8097 8.45051 10.8097C8.56297 10.8097 8.67083 10.765 8.75035 10.6855C8.82987 10.606 8.87454 10.4981 8.87454 10.3856V5.29723Z" fill="#5C624F"/>
<path id="Vector_2" d="M11.8423 2.75301C11.8423 2.97793 11.7529 3.19364 11.5939 3.35268C11.4348 3.51173 11.2191 3.60108 10.9942 3.60108H10.5702V11.2337C10.5702 11.6835 10.3915 12.115 10.0734 12.433C9.7553 12.7511 9.32388 12.9298 8.87404 12.9298H3.78562C3.33578 12.9298 2.90436 12.7511 2.58627 12.433C2.26819 12.115 2.08949 11.6835 2.08949 11.2337V3.60108H1.66545C1.44053 3.60108 1.22482 3.51173 1.06578 3.35268C0.906733 3.19364 0.817383 2.97793 0.817383 2.75301V1.90494C0.817383 1.68002 0.906733 1.46431 1.06578 1.30526C1.22482 1.14622 1.44053 1.05687 1.66545 1.05687H4.63369C4.63369 0.831948 4.72304 0.616239 4.88209 0.457195C5.04113 0.298151 5.25684 0.208801 5.48176 0.208801L7.1779 0.208801C7.40282 0.208801 7.61853 0.298151 7.77757 0.457195C7.93662 0.616239 8.02597 0.831948 8.02597 1.05687H10.9942C11.2191 1.05687 11.4348 1.14622 11.5939 1.30526C11.7529 1.46431 11.8423 1.68002 11.8423 1.90494V2.75301ZM3.03763 3.60108L2.93755 3.65111V11.2337C2.93755 11.4586 3.0269 11.6743 3.18595 11.8334C3.34499 11.9924 3.5607 12.0818 3.78562 12.0818H8.87404C9.09896 12.0818 9.31467 11.9924 9.47371 11.8334C9.63275 11.6743 9.7221 11.4586 9.7221 11.2337V3.65111L9.62203 3.60108H3.03763ZM1.66545 2.75301H10.9942V1.90494H1.66545V2.75301Z" fill="#5C624F"/>
</g>
</svg>
