<svg width="31" height="31" viewBox="0 0 31 31" fill="none" xmlns="http://www.w3.org/2000/svg">
<g id="Component 5">
<path id="Vector (Stroke)" fill-rule="evenodd" clip-rule="evenodd" d="M15.9641 13.1328C14.5834 13.1328 13.4641 14.2521 13.4641 15.6328C13.4641 17.0135 14.5834 18.1328 15.9641 18.1328C17.3448 18.1328 18.4641 17.0135 18.4641 15.6328C18.4641 14.2521 17.3448 13.1328 15.9641 13.1328ZM10.9641 15.6328C10.9641 12.8714 13.2027 10.6328 15.9641 10.6328C18.7255 10.6328 20.9641 12.8714 20.9641 15.6328C20.9641 18.3942 18.7255 20.6328 15.9641 20.6328C13.2027 20.6328 10.9641 18.3942 10.9641 15.6328Z" fill="#A9CF54"/>
<path id="Vector (Stroke)_2" fill-rule="evenodd" clip-rule="evenodd" d="M15.9641 3.13281C15.6326 3.13281 15.3146 3.26451 15.0802 3.49893C14.8458 3.73335 14.7141 4.05129 14.7141 4.38281V4.6003C14.7115 5.24631 14.5201 5.87747 14.1634 6.41608C13.8067 6.95469 13.3003 7.37725 12.7065 7.63174C12.6008 7.67704 12.4896 7.70743 12.3761 7.72227C11.8366 7.91121 11.2558 7.95778 10.6904 7.85526C10.0391 7.73718 9.43817 7.42671 8.96503 6.96389L8.95517 6.95425L8.88023 6.8792C8.76414 6.76297 8.62578 6.67029 8.47404 6.60738C8.32229 6.54447 8.15963 6.5121 7.99536 6.5121C7.83109 6.5121 7.66843 6.54447 7.51669 6.60738C7.36494 6.67029 7.22708 6.76248 7.11099 6.8787L7.11 6.87969C6.99378 6.99578 6.90158 7.13364 6.83868 7.28539C6.77577 7.43714 6.74339 7.59979 6.74339 7.76406C6.74339 7.92833 6.77577 8.09099 6.83868 8.24274C6.90158 8.39449 6.99378 8.53235 7.11 8.64844L7.19524 8.73368C7.65806 9.20682 7.96848 9.80782 8.08656 10.4591C8.2023 11.0973 8.12802 11.7553 7.87342 12.3513C7.64147 12.9595 7.23533 13.4862 6.70542 13.8652C6.16479 14.2518 5.52034 14.4669 4.85584 14.4825L4.82661 14.4828H4.71411C4.38259 14.4828 4.06465 14.6145 3.83023 14.8489C3.59581 15.0834 3.46411 15.4013 3.46411 15.7328C3.46411 16.0643 3.59581 16.3823 3.83023 16.6167C4.06465 16.8511 4.38259 16.9828 4.71411 16.9828H4.9316C5.57761 16.9854 6.20877 17.1768 6.74738 17.5335C7.28412 17.889 7.70561 18.3931 7.96038 18.9842C8.22546 19.5881 8.30425 20.2575 8.18656 20.9066C8.06848 21.5578 7.75801 22.1587 7.29519 22.6319L7.28555 22.6418L7.21049 22.7167C7.09427 22.8328 7.00158 22.9711 6.93868 23.1229C6.87577 23.2746 6.84339 23.4373 6.84339 23.6016C6.84339 23.7658 6.87577 23.9285 6.93868 24.0802C7.00158 24.232 7.09378 24.3699 7.21 24.4859L7.21099 24.4869C7.32708 24.6031 7.46494 24.6953 7.61669 24.7582C7.76844 24.8212 7.93109 24.8535 8.09536 24.8535C8.25963 24.8535 8.42229 24.8212 8.57404 24.7582C8.72579 24.6953 8.86365 24.6031 8.97974 24.4869L9.06498 24.4017C9.53812 23.9389 10.1391 23.6284 10.7904 23.5104C11.4286 23.3946 12.0866 23.4689 12.6826 23.7235C13.2908 23.9554 13.8174 24.3616 14.1965 24.8915C14.5831 25.4321 14.7982 26.0766 14.8138 26.7411L14.8141 26.7703V26.8828C14.8141 27.2143 14.9458 27.5323 15.1802 27.7667C15.4146 28.0011 15.7326 28.1328 16.0641 28.1328C16.3956 28.1328 16.7136 28.0011 16.948 27.7667C17.1824 27.5323 17.3141 27.2143 17.3141 26.8828V26.6703L17.3141 26.6653C17.3167 26.0193 17.5081 25.3882 17.8648 24.8495C18.2203 24.3128 18.7245 23.8912 19.3157 23.6365C19.9195 23.3714 20.5889 23.2927 21.2379 23.4104C21.8891 23.5284 22.49 23.8389 22.9632 24.3017L22.973 24.3114L23.048 24.3864C23.1641 24.5026 23.3024 24.5953 23.4542 24.6582C23.6059 24.7212 23.7686 24.7535 23.9329 24.7535C24.0971 24.7535 24.2598 24.7212 24.4115 24.6582C24.5633 24.5953 24.7011 24.5031 24.8172 24.3869L24.8182 24.3859C24.9344 24.2698 25.0266 24.132 25.0895 23.9802C25.1525 23.8285 25.1848 23.6658 25.1848 23.5016C25.1848 23.3373 25.1525 23.1746 25.0895 23.0229C25.0266 22.8711 24.9344 22.7333 24.8182 22.6172L24.733 22.5319C24.2702 22.0588 23.9597 21.4578 23.8417 20.8066C23.724 20.1576 23.8027 19.4882 24.0678 18.8844C24.3225 18.2932 24.7441 17.789 25.2808 17.4335C25.8195 17.0768 26.4506 16.8854 27.0966 16.8828L27.1016 16.8828L27.2141 16.8828C27.5456 16.8828 27.8636 16.7511 28.098 16.5167C28.3324 16.2823 28.4641 15.9643 28.4641 15.6328C28.4641 15.3013 28.3324 14.9834 28.098 14.7489C27.8636 14.5145 27.5456 14.3828 27.2141 14.3828H27.0016L26.9966 14.3828C26.3506 14.3802 25.7195 14.1888 25.1808 13.8321C24.6422 13.4754 24.2197 12.969 23.9652 12.3752C23.9199 12.2695 23.8895 12.1583 23.8747 12.0448C23.6857 11.5053 23.6391 10.9245 23.7417 10.3591C23.8597 9.70782 24.1702 9.10688 24.633 8.63373L24.6427 8.62388L24.7177 8.54893C24.8339 8.43284 24.9266 8.29448 24.9895 8.14274C25.0525 7.99099 25.0848 7.82833 25.0848 7.66406C25.0848 7.49979 25.0525 7.33714 24.9895 7.18539C24.9266 7.03364 24.8344 6.89578 24.7182 6.77969L24.7172 6.7787C24.6011 6.66248 24.4633 6.57028 24.3115 6.50738C24.1598 6.44447 23.9971 6.4121 23.8329 6.4121C23.6686 6.4121 23.5059 6.44447 23.3542 6.50738C23.2024 6.57029 23.0646 6.66249 22.9485 6.7787L22.8632 6.86395C22.3901 7.32677 21.7891 7.63718 21.1379 7.75526C20.4888 7.87295 19.8194 7.79416 19.2155 7.52908C18.6244 7.27431 18.1203 6.85282 17.7648 6.31608C17.4081 5.77747 17.2167 5.14631 17.2141 4.5003L17.2141 4.49531V4.38281C17.2141 4.05129 17.0824 3.73335 16.848 3.49893C16.6136 3.26451 16.2956 3.13281 15.9641 3.13281ZM13.3125 1.73116C14.0157 1.0279 14.9695 0.632812 15.9641 0.632812C16.9587 0.632812 17.9125 1.0279 18.6158 1.73116C19.319 2.43442 19.7141 3.38825 19.7141 4.38281V4.49219C19.7151 4.64999 19.762 4.80411 19.8492 4.93571C19.9367 5.06782 20.0609 5.17147 20.2065 5.23389L20.2188 5.23917C20.3674 5.30472 20.5321 5.32434 20.6918 5.29537C20.8498 5.26673 20.9957 5.19192 21.1112 5.08045L21.1797 5.01192C21.528 4.66326 21.9416 4.38666 22.3968 4.19795C22.8521 4.00923 23.3401 3.9121 23.8329 3.9121C24.3257 3.9121 24.8136 4.00923 25.2689 4.19795C25.7241 4.38666 26.1377 4.66326 26.486 5.01192C26.8342 5.35999 27.1104 5.77322 27.299 6.22804C27.4877 6.68328 27.5848 7.17125 27.5848 7.66406C27.5848 8.15687 27.4877 8.64485 27.299 9.10009C27.1104 9.55512 26.8339 9.96852 26.4855 10.3167C26.4853 10.3169 26.4857 10.3165 26.4855 10.3167L26.4165 10.3857C26.305 10.5012 26.2302 10.6471 26.2015 10.8051C26.1726 10.9648 26.1921 11.1296 26.2577 11.2781C26.293 11.3582 26.3197 11.4415 26.3376 11.5266C26.3967 11.6138 26.4726 11.689 26.5612 11.7477C26.6928 11.8349 26.8469 11.8818 27.0047 11.8828H27.2141C28.2087 11.8828 29.1625 12.2779 29.8658 12.9812C30.569 13.6844 30.9641 14.6382 30.9641 15.6328C30.9641 16.6274 30.569 17.5812 29.8658 18.2845C29.1625 18.9877 28.2087 19.3828 27.2141 19.3828H27.1047C26.9469 19.3838 26.7928 19.4307 26.6612 19.5179C26.5291 19.6054 26.4255 19.7296 26.363 19.8752L26.3578 19.8875C26.2922 20.0361 26.2726 20.2008 26.3015 20.3605C26.3302 20.5185 26.405 20.6644 26.5165 20.7799L26.585 20.8484C26.5848 20.8483 26.5852 20.8486 26.585 20.8484C26.9334 21.1966 27.2103 21.6105 27.399 22.0655C27.5877 22.5208 27.6848 23.0088 27.6848 23.5016C27.6848 23.9944 27.5877 24.4823 27.399 24.9376C27.2103 25.3928 26.9337 25.8064 26.585 26.1547L25.7016 25.2703L26.586 26.1537C26.2377 26.5024 25.8241 26.779 25.3689 26.9677C24.9136 27.1564 24.4257 27.2535 23.9329 27.2535C23.4401 27.2535 22.9521 27.1564 22.4968 26.9677C22.0418 26.7791 21.6284 26.5026 21.2802 26.1542C21.2801 26.154 21.2804 26.1544 21.2802 26.1542L21.2112 26.0852C21.0957 25.9737 20.9498 25.8989 20.7918 25.8703C20.6321 25.8413 20.4673 25.8608 20.3188 25.9264L20.3066 25.9318C20.1609 25.9942 20.0367 26.0978 19.9492 26.2299C19.862 26.3615 19.8151 26.5156 19.8141 26.6734V26.8828C19.8141 27.8774 19.419 28.8312 18.7158 29.5345C18.0125 30.2377 17.0587 30.6328 16.0641 30.6328C15.0695 30.6328 14.1157 30.2377 13.4125 29.5345C12.7092 28.8312 12.3141 27.8774 12.3141 26.8828V26.7883C12.3082 26.6293 12.2557 26.4754 12.163 26.3459C12.0682 26.2133 11.9356 26.1123 11.7826 26.056C11.7579 26.0469 11.7335 26.037 11.7094 26.0264C11.5609 25.9608 11.3961 25.9413 11.2364 25.9703C11.0784 25.9989 10.9324 26.0737 10.817 26.1852L10.7485 26.2537C10.7483 26.2539 10.7486 26.2535 10.7485 26.2537C10.4003 26.6021 9.98642 26.879 9.53139 27.0677C9.07615 27.2564 8.58817 27.3535 8.09536 27.3535C7.60255 27.3535 7.11458 27.2564 6.65934 27.0677C6.20452 26.8791 5.79129 26.6029 5.44322 26.2547C5.09456 25.9064 4.81796 25.4928 4.62925 25.0376C4.44053 24.5823 4.34339 24.0944 4.34339 23.6016C4.34339 23.1088 4.44053 22.6208 4.62925 22.1655C4.81796 21.7103 5.09456 21.2967 5.44322 20.9484L5.51175 20.8799C5.62322 20.7644 5.69802 20.6185 5.72667 20.4605C5.75564 20.3008 5.73608 20.136 5.67053 19.9875L5.66512 19.9753C5.6027 19.8296 5.49912 19.7054 5.36701 19.6179C5.23541 19.5307 5.08129 19.4838 4.92348 19.4828H4.71411C3.71955 19.4828 2.76572 19.0877 2.06246 18.3845C1.3592 17.6812 0.964111 16.7274 0.964111 15.7328C0.964111 14.7383 1.3592 13.7844 2.06246 13.0812C2.76572 12.3779 3.71955 11.9828 4.71411 11.9828H4.80866C4.96765 11.9769 5.1215 11.9244 5.25105 11.8317C5.38366 11.7369 5.48466 11.6044 5.54094 11.4513C5.55003 11.4266 5.5599 11.4022 5.57053 11.3781C5.63608 11.2296 5.65564 11.0648 5.62667 10.9051C5.59802 10.7471 5.52321 10.6012 5.41173 10.4857L5.34322 10.4172C4.99456 10.0689 4.71796 9.65533 4.52925 9.20009C4.34053 8.74485 4.24339 8.25687 4.24339 7.76406C4.24339 7.27125 4.34053 6.78328 4.52925 6.32804C4.71787 5.87301 4.9943 5.4596 5.34273 5.11143C5.6909 4.763 6.10431 4.48657 6.55934 4.29795C7.01458 4.10923 7.50255 4.0121 7.99536 4.0121C8.48817 4.0121 8.97614 4.10923 9.43139 4.29795C9.88663 4.48666 10.3002 4.76326 10.6485 5.11192L10.717 5.18043C10.8325 5.29191 10.9784 5.36672 11.1364 5.39537C11.2961 5.42434 11.4609 5.40478 11.6094 5.33923C11.6895 5.30391 11.7728 5.27718 11.858 5.25934C11.9451 5.20018 12.0203 5.12435 12.079 5.03571C12.1662 4.90411 12.2131 4.74999 12.2141 4.59219V4.38281C12.2141 3.38825 12.6092 2.43442 13.3125 1.73116Z" fill="#A9CF54"/>
</g>
</svg>
