<svg width="31" height="31" viewBox="0 0 31 31" fill="none" xmlns="http://www.w3.org/2000/svg">
<g id="Exit">
<path id="Exit_2" d="M30.9641 15.6328L24.9641 9.63281V14.1328H12.9641V17.1328H24.9641V21.6328M27.9641 24.6328C26.0752 27.1514 23.4417 29.0118 20.4366 29.9505C17.4316 30.8892 14.2074 30.8586 11.2207 29.8631C8.23401 28.8675 5.63629 26.9575 3.79548 24.4035C1.95467 21.8495 0.964111 18.781 0.964111 15.6328C0.964111 12.4846 1.95467 9.41614 3.79548 6.86216C5.63629 4.30818 8.23401 2.39812 11.2207 1.40256C14.2074 0.407003 17.4316 0.376407 20.4366 1.31511C23.4417 2.25381 26.0752 4.11422 27.9641 6.63281H23.8691C22.1371 5.10531 20.0011 4.11003 17.7174 3.7664C15.4338 3.42277 13.0995 3.7454 10.9946 4.69556C8.88976 5.64572 7.10379 7.18306 5.85101 9.12309C4.59823 11.0631 3.93186 13.3234 3.93186 15.6328C3.93186 17.9422 4.59823 20.2025 5.85101 22.1425C7.10379 24.0826 8.88976 25.6199 10.9946 26.5701C13.0995 27.5202 15.4338 27.8429 17.7174 27.4992C20.0011 27.1556 22.1371 26.1603 23.8691 24.6328H27.9641Z" fill="#A9CF54"/>
</g>
</svg>
