<svg width="16" height="14" viewBox="0 0 16 14" fill="none" xmlns="http://www.w3.org/2000/svg">
<path d="M2.76614 0.536779C2.69631 0.466951 2.61341 0.41156 2.52218 0.37377C2.43094 0.335979 2.33316 0.316528 2.23441 0.316528C2.13565 0.316528 2.03787 0.335979 1.94663 0.37377C1.8554 0.41156 1.7725 0.466951 1.70267 0.536779C1.56165 0.677803 1.48242 0.869073 1.48242 1.06851C1.48242 1.26795 1.56165 1.45922 1.70267 1.60024L5.91909 5.81666C5.65232 6.31291 5.55255 6.8819 5.63456 7.4393C5.71657 7.9967 5.976 8.51285 6.37438 8.91124C6.77277 9.30962 7.28892 9.56905 7.84632 9.65106C8.40372 9.73306 8.97271 9.63329 9.46896 9.36653L13.6854 13.5829C13.755 13.6531 13.8378 13.7089 13.9291 13.7469C14.0204 13.7849 14.1182 13.8045 14.2171 13.8045C14.316 13.8045 14.4139 13.7849 14.5051 13.7469C14.5964 13.7089 14.6792 13.6531 14.7488 13.5829C14.819 13.5133 14.8748 13.4305 14.9128 13.3392C14.9508 13.248 14.9704 13.1501 14.9704 13.0512C14.9704 12.9523 14.9508 12.8545 14.9128 12.7632C14.8748 12.6719 14.819 12.5891 14.7488 12.5195L2.76614 0.536779ZM8.22576 8.18324C7.92782 8.18324 7.64208 8.06489 7.43141 7.85421C7.22073 7.64354 7.10238 7.3578 7.10238 7.05986C7.10238 7.05986 7.10238 7.02242 7.10238 7.00744L8.27069 8.17575L8.22576 8.18324Z" fill="#8E8D8D"/>
<path d="M8.39033 10.8046C5.16998 10.8794 3.05802 8.11593 2.39897 7.05996C2.86815 6.31156 3.43201 5.62688 4.07655 5.0229L2.98313 3.96692C2.13785 4.76338 1.4137 5.67928 0.833735 6.6855C0.768003 6.79935 0.733398 6.9285 0.733398 7.05996C0.733398 7.19142 0.768003 7.32057 0.833735 7.43442C1.30555 8.25074 3.82941 12.3024 8.24054 12.3024H8.42777C9.25724 12.2778 10.076 12.108 10.8468 11.8006L9.66349 10.6173C9.24737 10.7268 8.82035 10.7896 8.39033 10.8046ZM15.6174 6.6855C15.1381 5.8542 12.4944 1.68272 8.02336 1.81753C7.19389 1.84213 6.37516 2.01196 5.60435 2.3193L6.78764 3.50259C7.20376 3.39312 7.63078 3.33033 8.0608 3.31536C11.2737 3.23298 13.3856 6.00398 14.0522 7.05996C13.5714 7.8106 12.9949 8.49538 12.3371 9.09702L13.468 10.153C14.3239 9.35863 15.0582 8.44263 15.6474 7.43442C15.7086 7.31796 15.7381 7.18742 15.7328 7.05594C15.7275 6.92447 15.6877 6.7967 15.6174 6.6855Z" fill="#8E8D8D"/>
</svg>
