<svg width="32" height="31" viewBox="0 0 32 31" fill="none" xmlns="http://www.w3.org/2000/svg">
<g id="ic:round-search">
<path id="Vector" d="M21.0086 18.1328H19.9869L19.6248 17.7953C20.433 16.8878 21.0237 15.8188 21.3545 14.6649C21.6854 13.5109 21.7483 12.3005 21.5388 11.1203C20.931 7.64534 17.9308 4.87034 14.3098 4.44534C13.0368 4.28967 11.7439 4.41756 10.5299 4.8192C9.31585 5.22085 8.213 5.88562 7.30568 6.76263C6.39836 7.63965 5.71062 8.70567 5.2951 9.87912C4.87957 11.0526 4.74727 12.3024 4.90832 13.5328C5.348 17.0328 8.21889 19.9328 11.814 20.5203C13.0349 20.7229 14.2871 20.6621 15.481 20.3423C16.6748 20.0225 17.7807 19.4515 18.7196 18.6703L19.0688 19.0203V20.0078L24.5648 25.3203C25.095 25.8328 25.9615 25.8328 26.4917 25.3203C27.0219 24.8078 27.0219 23.9703 26.4917 23.4578L21.0086 18.1328ZM13.2494 18.1328C10.0294 18.1328 7.43004 15.6203 7.43004 12.5078C7.43004 9.39534 10.0294 6.88284 13.2494 6.88284C16.4695 6.88284 19.0688 9.39534 19.0688 12.5078C19.0688 15.6203 16.4695 18.1328 13.2494 18.1328Z" fill="#909193"/>
</g>
</svg>
