<svg width="15" height="17" viewBox="0 0 15 17" fill="none" xmlns="http://www.w3.org/2000/svg">
<g id="People">
<path id="Vector" d="M13.9047 12.5592L10.1765 10.4941C11.5622 9.40398 11.9385 7.26161 11.9385 6.06043V3.56011C11.9385 1.90448 9.73866 0.0605469 7.52908 0.0605469C5.32009 0.0605469 3.06196 1.90477 3.06196 3.56011V6.06043C3.06196 7.15263 3.52411 9.36223 4.92395 10.4846L1.09958 12.5592C1.09958 12.5592 0.100342 13.0045 0.100342 13.5596V15.0601C0.100342 15.6123 0.548575 16.0605 1.09958 16.0605H13.9047C14.4562 16.0605 14.9045 15.6123 14.9045 15.0601V13.5597C14.9045 12.9711 13.9047 12.5592 13.9047 12.5592ZM13.7202 14.8763H1.28466V13.8175C1.36964 13.7557 1.48836 13.684 1.58192 13.6411C1.60973 13.6284 1.63756 13.615 1.66391 13.5999L5.48856 11.5257C5.83733 11.3365 6.06856 10.9856 6.1038 10.5907C6.13903 10.1957 5.97412 9.80874 5.66502 9.56064C4.672 8.7645 4.24654 7.0011 4.24654 6.06048V3.56016C4.24654 2.70955 5.85006 1.24489 7.52938 1.24489C9.23978 1.24489 10.7545 2.68944 10.7545 3.56016V6.06048C10.7545 6.98807 10.4664 8.75917 9.44466 9.563C9.29064 9.68428 9.16909 9.84184 9.09086 10.0216C9.01264 10.2013 8.98019 10.3977 8.99641 10.593C9.0129 10.7883 9.07751 10.9764 9.18445 11.1406C9.2914 11.3048 9.43735 11.44 9.60928 11.534L13.3374 13.5991C13.3703 13.6171 13.412 13.6366 13.4467 13.6518C13.534 13.6888 13.6415 13.7506 13.7202 13.8051V14.8763Z" fill="#8E8D8D"/>
</g>
</svg>
