<svg width="31" height="31" viewBox="0 0 31 31" fill="none" xmlns="http://www.w3.org/2000/svg">
<g id="Profil">
<path id="Vector" fill-rule="evenodd" clip-rule="evenodd" d="M15.9641 17.8828C17.5554 17.8828 19.0815 17.2507 20.2068 16.1255C21.332 15.0002 21.9641 13.4741 21.9641 11.8828C21.9641 10.2915 21.332 8.76539 20.2068 7.64017C19.0815 6.51495 17.5554 5.88281 15.9641 5.88281C14.3728 5.88281 12.8467 6.51495 11.7215 7.64017C10.5963 8.76539 9.96411 10.2915 9.96411 11.8828C9.96411 13.4741 10.5963 15.0002 11.7215 16.1255C12.8467 17.2507 14.3728 17.8828 15.9641 17.8828ZM15.9641 16.3828C16.5551 16.3828 17.1402 16.2664 17.6862 16.0403C18.2322 15.8141 18.7282 15.4827 19.1461 15.0648C19.564 14.6469 19.8954 14.1509 20.1216 13.6049C20.3477 13.0589 20.4641 12.4738 20.4641 11.8828C20.4641 11.2919 20.3477 10.7067 20.1216 10.1607C19.8954 9.61477 19.564 9.1187 19.1461 8.70083C18.7282 8.28297 18.2322 7.9515 17.6862 7.72535C17.1402 7.49921 16.5551 7.38281 15.9641 7.38281C14.7706 7.38281 13.626 7.85692 12.7821 8.70083C11.9382 9.54475 11.4641 10.6893 11.4641 11.8828C11.4641 13.0763 11.9382 14.2209 12.7821 15.0648C13.626 15.9087 14.7706 16.3828 15.9641 16.3828Z" fill="#A9CF54"/>
<path id="Vector_2" fill-rule="evenodd" clip-rule="evenodd" d="M30.9641 15.6328C30.9641 23.9173 24.2486 30.6328 15.9641 30.6328C7.67961 30.6328 0.964111 23.9173 0.964111 15.6328C0.964111 7.34831 7.67961 0.632812 15.9641 0.632812C24.2486 0.632812 30.9641 7.34831 30.9641 15.6328ZM23.1866 27.0403C21.0273 28.411 18.5217 29.1369 15.9641 29.1328C13.3452 29.137 10.7822 28.3758 8.59011 26.9428C8.41011 26.7178 8.22786 26.4853 8.04261 26.2453C7.82851 25.964 7.71305 25.6201 7.71411 25.2666C7.71411 24.4588 8.29461 23.7816 9.07086 23.6683C14.2046 22.9183 17.7394 22.9828 22.8799 23.6946C23.2521 23.7485 23.5923 23.9354 23.8376 24.2206C24.0828 24.5058 24.2166 24.8702 24.2141 25.2463C24.2141 25.6063 24.0904 25.9558 23.8669 26.2288C23.6366 26.5093 23.4094 26.7801 23.1866 27.0403ZM25.7029 24.9823C25.5829 23.5783 24.5171 22.4068 23.0854 22.2088C17.8234 21.4806 14.1454 21.4108 8.85411 22.1841C7.41411 22.3941 6.35286 23.5761 6.22686 24.9838C3.80836 22.4721 2.45934 19.1196 2.46411 15.6328C2.46411 8.17706 8.50836 2.13281 15.9641 2.13281C23.4199 2.13281 29.4641 8.17706 29.4641 15.6328C29.4689 19.1189 28.1205 22.4707 25.7029 24.9823Z" fill="#A9CF54"/>
</g>
</svg>
