<svg width="21" height="21" viewBox="0 0 21 21" fill="none" xmlns="http://www.w3.org/2000/svg">
<path fill-rule="evenodd" clip-rule="evenodd" d="M2.2666 10.9282C2.26675 9.38867 2.71111 7.88187 3.54639 6.58861C4.38166 5.29534 5.57236 4.27057 6.97561 3.63724C8.37886 3.00391 9.93504 2.78893 11.4574 3.0181C12.9798 3.24726 14.4038 3.91085 15.5584 4.92922C16.713 5.94758 17.5492 7.27748 17.9668 8.75933C18.3843 10.2412 18.3654 11.812 17.9123 13.2834C17.4592 14.7548 16.5912 16.0641 15.4124 17.0544C14.2336 18.0447 12.7941 18.6738 11.2666 18.8662V12.9282H13.2666C13.5318 12.9282 13.7862 12.8229 13.9737 12.6353C14.1612 12.4478 14.2666 12.1934 14.2666 11.9282C14.2666 11.663 14.1612 11.4087 13.9737 11.2211C13.7862 11.0336 13.5318 10.9282 13.2666 10.9282H11.2666V8.92822C11.2666 8.66301 11.372 8.40865 11.5595 8.22112C11.747 8.03358 12.0014 7.92822 12.2666 7.92822H12.7666C13.0318 7.92822 13.2862 7.82287 13.4737 7.63533C13.6612 7.44779 13.7666 7.19344 13.7666 6.92822C13.7666 6.66301 13.6612 6.40865 13.4737 6.22112C13.2862 6.03358 13.0318 5.92822 12.7666 5.92822H12.2666C11.471 5.92822 10.7079 6.24429 10.1453 6.8069C9.58267 7.36951 9.2666 8.13257 9.2666 8.92822V10.9282H7.2666C7.00139 10.9282 6.74703 11.0336 6.55949 11.2211C6.37196 11.4087 6.2666 11.663 6.2666 11.9282C6.2666 12.1934 6.37196 12.4478 6.55949 12.6353C6.74703 12.8229 7.00139 12.9282 7.2666 12.9282H9.2666V18.8662C7.3333 18.6224 5.55542 17.6815 4.2666 16.22C2.97779 14.7585 2.26663 12.8768 2.2666 10.9282ZM10.2666 20.9282C15.7896 20.9282 20.2666 16.4512 20.2666 10.9282C20.2666 5.40522 15.7896 0.928223 10.2666 0.928223C4.7436 0.928223 0.266602 5.40522 0.266602 10.9282C0.266602 16.4512 4.7436 20.9282 10.2666 20.9282Z" fill="#F7F8FA"/>
</svg>
