<svg width="21" height="21" viewBox="0 0 21 21" fill="none" xmlns="http://www.w3.org/2000/svg">
<g opacity="0.8">
<path d="M10.2666 7.92822C9.47095 7.92822 8.70789 8.24429 8.14528 8.8069C7.58267 9.36951 7.2666 10.1326 7.2666 10.9282C7.2666 11.7239 7.58267 12.4869 8.14528 13.0495C8.70789 13.6122 9.47095 13.9282 10.2666 13.9282C11.0623 13.9282 11.8253 13.6122 12.3879 13.0495C12.9505 12.4869 13.2666 11.7239 13.2666 10.9282C13.2666 10.1326 12.9505 9.36951 12.3879 8.8069C11.8253 8.24429 11.0623 7.92822 10.2666 7.92822ZM10.2666 5.92822C11.5927 5.92822 12.8645 6.45501 13.8021 7.39269C14.7398 8.33037 15.2666 9.60214 15.2666 10.9282C15.2666 12.2543 14.7398 13.5261 13.8021 14.4638C12.8645 15.4014 11.5927 15.9282 10.2666 15.9282C8.94052 15.9282 7.66875 15.4014 6.73107 14.4638C5.79339 13.5261 5.2666 12.2543 5.2666 10.9282C5.2666 9.60214 5.79339 8.33037 6.73107 7.39269C7.66875 6.45501 8.94052 5.92822 10.2666 5.92822ZM16.7666 5.67822C16.7666 6.00974 16.6349 6.32769 16.4005 6.56211C16.1661 6.79653 15.8481 6.92822 15.5166 6.92822C15.1851 6.92822 14.8671 6.79653 14.6327 6.56211C14.3983 6.32769 14.2666 6.00974 14.2666 5.67822C14.2666 5.3467 14.3983 5.02876 14.6327 4.79434C14.8671 4.55992 15.1851 4.42822 15.5166 4.42822C15.8481 4.42822 16.1661 4.55992 16.4005 4.79434C16.6349 5.02876 16.7666 5.3467 16.7666 5.67822ZM10.2666 2.92822C7.7926 2.92822 7.3886 2.93522 6.2376 2.98622C5.4536 3.02322 4.9276 3.12822 4.4396 3.31822C4.03122 3.46816 3.66201 3.70848 3.3596 4.02122C3.04661 4.32362 2.80595 4.69281 2.6556 5.10122C2.4656 5.59122 2.3606 6.11622 2.3246 6.89922C2.2726 8.00322 2.2656 8.38922 2.2656 10.9282C2.2656 13.4032 2.2726 13.8062 2.3236 14.9572C2.3606 15.7402 2.4656 16.2672 2.6546 16.7542C2.8246 17.1892 3.0246 17.5022 3.3566 17.8342C3.6936 18.1702 4.0066 18.3712 4.4366 18.5372C4.9306 18.7282 5.4566 18.8342 6.2366 18.8702C7.3406 18.9222 7.7266 18.9282 10.2656 18.9282C12.7406 18.9282 13.1436 18.9212 14.2946 18.8702C15.0766 18.8332 15.6026 18.7282 16.0916 18.5392C16.4996 18.3885 16.8687 18.1483 17.1716 17.8362C17.5086 17.5002 17.7096 17.1872 17.8756 16.7562C18.0656 16.2642 18.1716 15.7382 18.2076 14.9562C18.2596 13.8532 18.2656 13.4662 18.2656 10.9282C18.2656 8.45422 18.2586 8.05022 18.2076 6.89922C18.1706 6.11722 18.0646 5.58922 17.8756 5.10122C17.7249 4.69324 17.4846 4.3242 17.1726 4.02122C16.8703 3.70807 16.5011 3.46739 16.0926 3.31722C15.6026 3.12722 15.0766 3.02222 14.2946 2.98622C13.1916 2.93422 12.8066 2.92822 10.2666 2.92822ZM10.2666 0.928223C12.9836 0.928223 13.3226 0.938223 14.3896 0.988223C15.4536 1.03822 16.1796 1.20522 16.8166 1.45322C17.4766 1.70722 18.0326 2.05122 18.5886 2.60622C19.0971 3.10612 19.4906 3.71081 19.7416 4.37822C19.9886 5.01522 20.1566 5.74122 20.2066 6.80622C20.2536 7.87222 20.2666 8.21122 20.2666 10.9282C20.2666 13.6452 20.2566 13.9842 20.2066 15.0502C20.1566 16.1152 19.9886 16.8402 19.7416 17.4782C19.4912 18.146 19.0977 18.7508 18.5886 19.2502C18.0886 19.7585 17.4839 20.152 16.8166 20.4032C16.1796 20.6502 15.4536 20.8182 14.3896 20.8682C13.3226 20.9152 12.9836 20.9282 10.2666 20.9282C7.5496 20.9282 7.2106 20.9182 6.1436 20.8682C5.0796 20.8182 4.3546 20.6502 3.7166 20.4032C3.04893 20.1527 2.44413 19.7592 1.9446 19.2502C1.43603 18.7504 1.04256 18.1457 0.791602 17.4782C0.543602 16.8412 0.376602 16.1152 0.326602 15.0502C0.278602 13.9842 0.266602 13.6452 0.266602 10.9282C0.266602 8.21122 0.276602 7.87222 0.326602 6.80622C0.376602 5.74022 0.543602 5.01622 0.791602 4.37822C1.04184 3.7104 1.43541 3.10554 1.9446 2.60622C2.44427 2.09745 3.04903 1.70395 3.7166 1.45322C4.3536 1.20522 5.0786 1.03822 6.1436 0.988223C7.2106 0.941223 7.5496 0.928223 10.2666 0.928223Z" fill="#F7F8FA"/>
</g>
</svg>
