<svg width="21" height="21" viewBox="0 0 21 21" fill="none" xmlns="http://www.w3.org/2000/svg">
<g opacity="0.8">
<path d="M10.2666 18.9282C12.3883 18.9282 14.4232 18.0854 15.9235 16.5851C17.4237 15.0848 18.2666 13.05 18.2666 10.9282C18.2666 8.80649 17.4237 6.77166 15.9235 5.27137C14.4232 3.77108 12.3883 2.92822 10.2666 2.92822C8.14487 2.92822 6.11004 3.77108 4.60975 5.27137C3.10946 6.77166 2.2666 8.80649 2.2666 10.9282C2.2666 13.05 3.10946 15.0848 4.60975 16.5851C6.11004 18.0854 8.14487 18.9282 10.2666 18.9282ZM10.2666 20.9282C4.7436 20.9282 0.266602 16.4512 0.266602 10.9282C0.266602 5.40522 4.7436 0.928223 10.2666 0.928223C15.7896 0.928223 20.2666 5.40522 20.2666 10.9282C20.2666 16.4512 15.7896 20.9282 10.2666 20.9282Z" fill="#F7F8FA"/>
<path d="M15.2666 7.87523C14.8986 8.03523 14.5036 8.14523 14.0886 8.19323C14.5126 7.94323 14.8366 7.54723 14.9906 7.07623C14.5866 7.3117 14.1457 7.47735 13.6866 7.56623C13.4935 7.36381 13.2611 7.20284 13.0038 7.09315C12.7464 6.98346 12.4694 6.92735 12.1896 6.92823C11.0566 6.92823 10.1386 7.83323 10.1386 8.94823C10.1386 9.10623 10.1566 9.26023 10.1916 9.40823C9.37893 9.36964 8.58322 9.16208 7.85525 8.79878C7.12728 8.43548 6.48303 7.92443 5.9636 7.29823C5.78116 7.60533 5.68511 7.95603 5.6856 8.31323C5.6856 9.01323 6.0486 9.63323 6.5986 9.99423C6.27305 9.98402 5.95446 9.89735 5.6686 9.74123V9.76623C5.67169 10.2357 5.8374 10.6896 6.13752 11.0506C6.43764 11.4116 6.8536 11.6574 7.3146 11.7462C7.01196 11.8263 6.69529 11.8379 6.3876 11.7802C6.52173 12.1841 6.77828 12.5362 7.12162 12.7876C7.46497 13.039 7.87808 13.1773 8.3036 13.1832C7.57356 13.7458 6.67724 14.0497 5.7556 14.0472C5.5906 14.0472 5.4276 14.0372 5.2666 14.0192C6.20707 14.6145 7.29756 14.9298 8.4106 14.9282C12.1846 14.9282 14.2476 11.8502 14.2476 9.18023L14.2406 8.91823C14.6429 8.63551 14.9905 8.28212 15.2666 7.87523Z" fill="#F7F8FA"/>
</g>
</svg>
